<?xml version="1.0" encoding="UTF-8"?>
<svg width="64" height="64" viewBox="0 0 64 64" fill="none" xmlns="http://www.w3.org/2000/svg">
  <!-- Candle body -->
  <rect x="22" y="16" width="20" height="32" rx="2" fill="url(#gradient1)" stroke="#1a1a1a" stroke-width="1"/>
  
  <!-- Candle wick -->
  <line x1="32" y1="8" x2="32" y2="16" stroke="#2d2d2d" stroke-width="2" stroke-linecap="round"/>
  <line x1="32" y1="48" x2="32" y2="56" stroke="#2d2d2d" stroke-width="2" stroke-linecap="round"/>
  
  <!-- Flame -->
  <ellipse cx="32" cy="8" rx="6" ry="8" fill="url(#flameGradient)"/>
  
  <!-- Eyes -->
  <circle cx="27" cy="28" r="2" fill="#1a1a1a"/>
  <circle cx="37" cy="28" r="2" fill="#1a1a1a"/>
  <circle cx="27.5" cy="27.5" r="0.8" fill="white"/>
  <circle cx="37.5" cy="27.5" r="0.8" fill="white"/>
  
  <!-- Mouth (confident smile) -->
  <path d="M26 36 Q32 40 38 36" stroke="#1a1a1a" stroke-width="1.5" fill="none" stroke-linecap="round"/>
  
  <!-- Chart lines on body -->
  <path d="M24 22 L28 20 L30 24 L34 18 L38 22" stroke="rgba(255,255,255,0.3)" stroke-width="1" fill="none"/>
  <path d="M24 26 L26 25 L30 28 L36 24 L40 27" stroke="rgba(255,255,255,0.2)" stroke-width="1" fill="none"/>
  
  <!-- Gradients -->
  <defs>
    <linearGradient id="gradient1" x1="0%" y1="0%" x2="100%" y2="100%">
      <stop offset="0%" style="stop-color:#ff6b6b;stop-opacity:1" />
      <stop offset="50%" style="stop-color:#ff8e53;stop-opacity:1" />
      <stop offset="100%" style="stop-color:#ff6b35;stop-opacity:1" />
    </linearGradient>
    <radialGradient id="flameGradient" cx="50%" cy="50%" r="50%">
      <stop offset="0%" style="stop-color:#ffeb3b;stop-opacity:1" />
      <stop offset="50%" style="stop-color:#ff9800;stop-opacity:1" />
      <stop offset="100%" style="stop-color:#ff5722;stop-opacity:1" />
    </radialGradient>
  </defs>
</svg>